
<!-- Created with Inkscape (http://www.inkscape.org/) -->
<svg
   xmlns:dc="http://purl.org/dc/elements/1.1/"
   xmlns:cc="http://web.resource.org/cc/"
   xmlns:rdf="http://www.w3.org/1999/02/22-rdf-syntax-ns#"
   xmlns:svg="http://www.w3.org/2000/svg"
   xmlns="http://www.w3.org/2000/svg"
   xmlns:sodipodi="http://sodipodi.sourceforge.net/DTD/sodipodi-0.dtd"
   xmlns:inkscape="http://www.inkscape.org/namespaces/inkscape"
   id="svg3003"
   sodipodi:version="0.32"
   inkscape:version="0.45.1"
   width="348.28125"
   height="438.85025"
   version="1.0"
   sodipodi:docbase="/Users/marianoaraujolovrincevich/Desktop/Heer"
   sodipodi:docname="Luftwaffe_insignia_casco.svg"
   inkscape:output_extension="org.inkscape.output.svg.inkscape">
  <metadata
     id="metadata3008">
    <rdf:RDF>
      <cc:Work
         rdf:about="">
        <dc:format>image/svg+xml</dc:format>
        <dc:type
           rdf:resource="http://purl.org/dc/dcmitype/StillImage" />
      </cc:Work>
    </rdf:RDF>
  </metadata>
  <defs
     id="defs3006" />
  <sodipodi:namedview
     inkscape:window-height="704"
     inkscape:window-width="1280"
     inkscape:pageshadow="2"
     inkscape:pageopacity="0.0"
     guidetolerance="10.0"
     gridtolerance="10.0"
     objecttolerance="10.0"
     borderopacity="1.0"
     bordercolor="#666666"
     pagecolor="#ffffff"
     id="base"
     inkscape:zoom="1.1416195"
     inkscape:cx="377.32065"
     inkscape:cy="193.8794"
     inkscape:window-x="0"
     inkscape:window-y="22"
     inkscape:current-layer="svg3003" />
  <g
     id="g22205"
     transform="translate(-143.125,-32.930986)">
    <path
       sodipodi:nodetypes="ccsccc"
       id="path5398"
       d="M 143.125,32.930986 L 143.125,333.09375 C 143.125,373.18983 262.82322,471.78125 317.25,471.78125 C 371.67258,471.78125 491.40625,373.18984 491.40625,333.09375 L 491.40625,32.930986 L 143.125,32.930986 z "
       style="opacity:1;color:#000000;fill:#000000;fill-opacity:1;fill-rule:evenodd;stroke:none;stroke-width:0.60000002;stroke-linecap:round;stroke-linejoin:round;marker:none;marker-start:none;marker-mid:none;marker-end:none;stroke-miterlimit:4;stroke-dasharray:none;stroke-dashoffset:0;stroke-opacity:1;visibility:visible;display:inline;overflow:visible;enable-background:accumulate" />
    <path
       sodipodi:nodetypes="ccccc"
       id="path16057"
       d="M 273.36486,222.75493 L 273.36486,300.66728 L 314.336,267.53214 L 314.336,222.75493 L 273.36486,222.75493 z "
       style="opacity:1;color:#000000;fill:#b8a46f;fill-opacity:1;fill-rule:evenodd;stroke:#353734;stroke-width:1.5;stroke-linecap:butt;stroke-linejoin:miter;marker:none;marker-start:none;marker-mid:none;marker-end:none;stroke-miterlimit:4;stroke-dasharray:none;stroke-dashoffset:0;stroke-opacity:1;visibility:visible;display:inline;overflow:visible;enable-background:accumulate" />
    <path
       sodipodi:nodetypes="ccccc"
       id="path15086"
       d="M 276.27538,291.15212 C 268.90453,289.96844 259.288,294.76056 258.70032,307.4958 L 267.54382,317.45873 C 276.08103,320.04059 283.26478,314.21129 279.52173,304.69723 L 276.27538,291.15212 z "
       style="opacity:1;color:#000000;fill:#b8a46f;fill-opacity:1;fill-rule:evenodd;stroke:#353734;stroke-width:1.5;stroke-linecap:round;stroke-linejoin:round;marker:none;marker-start:none;marker-mid:none;marker-end:none;stroke-miterlimit:4;stroke-dasharray:none;stroke-dashoffset:0;stroke-opacity:1;visibility:visible;display:inline;overflow:visible;enable-background:accumulate" />
    <path
       sodipodi:nodetypes="ccc"
       id="path10189"
       d="M 290.37297,273.64471 C 284.3417,267.18422 262.58472,237.06725 278.34834,212.25464 C 302.1318,230.80312 299.41497,256.5718 290.37297,273.64471 z "
       style="color:#000000;fill:#b8a46f;fill-opacity:1;fill-rule:evenodd;stroke:#353734;stroke-width:1.50000024;stroke-linecap:butt;stroke-linejoin:miter;marker:none;marker-start:none;marker-mid:none;marker-end:none;stroke-miterlimit:4;stroke-dasharray:none;stroke-dashoffset:0;stroke-opacity:1;visibility:visible;display:inline;overflow:visible;enable-background:accumulate" />
    <path
       sodipodi:nodetypes="ccssccscsccc"
       id="path15084"
       d="M 283.77556,278.95033 C 286.32028,275.1143 292.74393,272.02279 297.09678,271.11432 C 299.07539,265.91008 304.09471,262.15888 308.73885,262.15888 C 314.50546,262.15888 318.14207,265.15365 318.14207,270.44266 C 318.14207,273.90645 315.79917,276.95797 312.7688,279.17422 L 305.15668,280.96531 C 305.15668,280.96531 305.10004,288.57678 302.02228,291.48795 C 299.57809,293.79984 295.30569,290.59241 295.30569,290.59241 C 295.2949,294.7343 293.58395,301.09559 288.36522,305.36889 C 285.63328,307.6059 281.2755,307.05158 278.73812,306.7122 C 276.57389,302.75688 274.59623,298.27916 273.92457,293.72681 C 274.83684,286.16644 278.51246,280.55702 283.77556,278.95033 z "
       style="opacity:1;color:#000000;fill:#b8a46f;fill-opacity:1;fill-rule:evenodd;stroke:#353734;stroke-width:1.5;stroke-linecap:round;stroke-linejoin:round;marker:none;marker-start:none;marker-mid:none;marker-end:none;stroke-miterlimit:4;stroke-dasharray:none;stroke-dashoffset:0;stroke-opacity:1;visibility:visible;display:inline;overflow:visible;enable-background:accumulate" />
    <path
       id="rect7338"
       d="M 226.61702,367.60577 L 280.81106,421.79982 L 298.8806,403.73029 L 316.93561,385.67528 L 335.00514,403.74481 L 298.8806,439.86935 L 316.93558,457.92433 L 353.06012,421.79979 L 371.12965,403.73026 L 353.07467,385.67528 L 335.00514,367.60575 L 353.07467,349.53622 L 389.19918,385.66073 L 407.25414,367.60577 L 371.12963,331.48126 L 353.0601,313.41173 L 335.00514,331.46669 L 316.93561,349.53622 L 298.88062,331.48124 L 335.00511,295.35675 L 316.93558,277.28721 L 262.74156,331.48124 L 280.81109,349.55077 L 298.86607,367.60575 L 280.81106,385.66075 L 244.68655,349.53624 L 226.61702,367.60577 z "
       style="fill:#b8a46f;fill-opacity:1;stroke:#353734;stroke-width:1.5;stroke-linecap:round;stroke-linejoin:miter;stroke-miterlimit:4;stroke-dasharray:none;stroke-opacity:1" />
    <path
       sodipodi:nodetypes="cscscsssscccccc"
       id="path13128"
       d="M 362.47151,316.3393 C 362.47151,316.3393 363.4756,323.58506 366.82932,325.34111 C 370.07952,327.04296 372.21055,319.80954 372.21055,319.80954 C 372.05224,324.8755 371.40533,329.89929 376.75714,334.4085 C 381.22354,338.17171 385.30788,326.86195 385.30788,326.86195 C 388.40574,335.40762 381.03745,339.57576 382.43577,341.12507 C 383.80063,342.63732 387.40275,343.69088 388.80841,342.7592 C 392.01271,340.63537 393.36778,335.01364 393.36778,331.56355 C 393.36778,323.05062 389.20693,316.12711 384.18846,312.08547 C 376.80683,306.14065 367.95671,302.45837 367.95671,302.45837 L 367.95671,278.72645 L 334.14992,278.72645 L 334.14992,308.2794 L 339.18736,315.21987 L 362.47151,316.3393 z "
       style="color:#000000;fill:#b8a46f;fill-opacity:1;fill-rule:evenodd;stroke:#353734;stroke-width:1.5;stroke-linecap:round;stroke-linejoin:round;marker:none;marker-start:none;marker-mid:none;marker-end:none;stroke-miterlimit:4;stroke-dasharray:none;stroke-dashoffset:0;stroke-opacity:1;visibility:visible;display:inline;overflow:visible;enable-background:accumulate" />
    <path
       sodipodi:nodetypes="cccscc"
       id="path13124"
       d="M 345.00839,305.48083 C 331.17262,306.69494 320.08585,316.45095 320.94064,328.65303 L 326.20197,335.25767 C 326.20197,335.25767 330.28243,337.09232 334.11481,333.39635 C 340.38021,327.35394 340.74769,321.08052 347.02337,316.67514 L 345.00839,305.48083 z "
       style="color:#000000;fill:#b8a46f;fill-opacity:1;fill-rule:evenodd;stroke:#353734;stroke-width:1.5;stroke-linecap:round;stroke-linejoin:round;marker:none;marker-start:none;marker-mid:none;marker-end:none;stroke-miterlimit:4;stroke-dasharray:none;stroke-dashoffset:0;stroke-opacity:1;visibility:visible;display:inline;overflow:visible;enable-background:accumulate" />
    <path
       sodipodi:nodetypes="cccc"
       id="path13126"
       d="M 345.34422,304.92111 C 342.98257,315.2763 346.61737,320.06564 352.17275,321.15285 L 358.5535,320.70508 C 366.08038,320.44391 367.80026,311.11398 364.71037,305.70471"
       style="color:#000000;fill:#b8a46f;fill-opacity:1;fill-rule:evenodd;stroke:#353734;stroke-width:1.5;stroke-linecap:round;stroke-linejoin:round;marker:none;marker-start:none;marker-mid:none;marker-end:none;stroke-miterlimit:4;stroke-dasharray:none;stroke-dashoffset:0;stroke-opacity:1;visibility:visible;display:inline;overflow:visible;enable-background:accumulate" />
    <path
       style="color:#000000;fill:#b8a46f;fill-opacity:1;fill-rule:evenodd;stroke:#353734;stroke-width:1.5;stroke-linecap:round;stroke-linejoin:round;marker:none;marker-start:none;marker-mid:none;marker-end:none;stroke-miterlimit:4;stroke-dasharray:none;stroke-dashoffset:0;stroke-opacity:1;visibility:visible;display:inline;overflow:visible;enable-background:accumulate"
       d="M 320.67081,329.4509 C 322.84055,325.92015 328.4065,330.40057 326.66743,333.81804 C 324.11806,338.82786 327.16191,343.80209 325.84871,345.37284 C 323.7798,347.84751 314.18694,340.00188 320.67081,329.4509 z "
       id="path12151"
       sodipodi:nodetypes="csss" />
    <path
       style="color:#000000;fill:#b8a46f;fill-opacity:1;fill-rule:evenodd;stroke:#353734;stroke-width:1.5;stroke-linecap:round;stroke-linejoin:round;marker:none;marker-start:none;marker-mid:none;marker-end:none;stroke-miterlimit:4;stroke-dasharray:none;stroke-dashoffset:0;stroke-opacity:1;visibility:visible;display:inline;overflow:visible;enable-background:accumulate"
       d="M 351.78557,310.17239 C 352.11,306.64948 359.31945,308.01016 359.12952,312.15872 C 358.78701,319.64027 356.68405,327.83137 355.05099,327.83137 C 352.6425,327.83137 351.25673,315.915 351.78557,310.17239 z "
       id="path13122"
       sodipodi:nodetypes="csss" />
    <path
       sodipodi:nodetypes="cccc"
       id="path9210"
       d="M 368.41644,269.81577 L 368.41644,303.13002 C 357.46792,294.58298 347.58078,272.28595 347.37115,261.48721 L 368.41644,269.81577 z "
       style="opacity:1;color:#000000;fill:#b8a46f;fill-opacity:1;fill-rule:evenodd;stroke:#353734;stroke-width:1.5;stroke-linecap:butt;stroke-linejoin:miter;marker:none;marker-start:none;marker-mid:none;marker-end:none;stroke-miterlimit:4;stroke-dasharray:none;stroke-dashoffset:0;stroke-opacity:1;visibility:visible;display:inline;overflow:visible;enable-background:accumulate" />
    <path
       style="color:#000000;fill:#b8a46f;fill-opacity:1;fill-rule:evenodd;stroke:#353734;stroke-width:1.50000024;stroke-linecap:butt;stroke-linejoin:miter;marker:none;marker-start:none;marker-mid:none;marker-end:none;stroke-miterlimit:4;stroke-dasharray:none;stroke-dashoffset:0;stroke-opacity:1;visibility:visible;display:inline;overflow:visible;enable-background:accumulate"
       d="M 345.91394,305.88727 C 340.99212,298.81836 324.04817,266.17014 342.22294,243.33981 C 362.51378,264.35263 356.70075,289.9781 345.91394,305.88727 z "
       id="path10183"
       sodipodi:nodetypes="ccc" />
    <path
       sodipodi:nodetypes="ccc"
       id="path14111"
       d="M 333.0856,295.52646 C 331.61416,288.93248 324.04018,252.48479 329.61483,231.71251 C 346.72665,252.72533 342.65055,281.51703 333.0856,295.52646 z "
       style="color:#000000;fill:#b8a46f;fill-opacity:1;fill-rule:evenodd;stroke:#353734;stroke-width:1.50000036;stroke-linecap:butt;stroke-linejoin:miter;marker:none;marker-start:none;marker-mid:none;marker-end:none;stroke-miterlimit:4;stroke-dasharray:none;stroke-dashoffset:0;stroke-opacity:1;visibility:visible;display:inline;overflow:visible;enable-background:accumulate" />
    <path
       style="color:#000000;fill:#b8a46f;fill-opacity:1;fill-rule:evenodd;stroke:#353734;stroke-width:1.50000048;stroke-linecap:butt;stroke-linejoin:miter;marker:none;marker-start:none;marker-mid:none;marker-end:none;stroke-miterlimit:4;stroke-dasharray:none;stroke-dashoffset:0;stroke-opacity:1;visibility:visible;display:inline;overflow:visible;enable-background:accumulate"
       d="M 326.85721,262.061 C 325.85735,255.4228 324.84673,229.6723 327.29772,210.19975 C 338.75026,231.16539 335.89783,248.15406 326.85721,262.061 z "
       id="path15082"
       sodipodi:nodetypes="ccc" />
    <path
       sodipodi:nodetypes="ccc"
       id="path10181"
       d="M 357.95724,287.30472 C 347.78757,275.5342 329.16486,247.58759 349.59467,224.75726 C 370.57022,246.71995 372.16207,269.77402 357.95724,287.30472 z "
       style="color:#000000;fill:#b8a46f;fill-opacity:1;fill-rule:evenodd;stroke:#353734;stroke-width:1.50000024;stroke-linecap:butt;stroke-linejoin:miter;marker:none;marker-start:none;marker-mid:none;marker-end:none;stroke-miterlimit:4;stroke-dasharray:none;stroke-dashoffset:0;stroke-opacity:1;visibility:visible;display:inline;overflow:visible;enable-background:accumulate" />
    <path
       sodipodi:nodetypes="cccc"
       id="path9208"
       d="M 365.95369,231.8447 C 366.55954,247.24806 367.222,261.97976 370.20752,277.38311 C 356.19577,268.66782 345.36199,234.53301 345.13229,219.8444 L 365.95369,231.8447 z "
       style="opacity:1;color:#000000;fill:#b8a46f;fill-opacity:1;fill-rule:evenodd;stroke:#353734;stroke-width:1.49999988;stroke-linecap:butt;stroke-linejoin:miter;marker:none;marker-start:none;marker-mid:none;marker-end:none;stroke-miterlimit:4;stroke-dasharray:none;stroke-dashoffset:0;stroke-opacity:1;visibility:visible;display:inline;overflow:visible;enable-background:accumulate" />
    <path
       sodipodi:nodetypes="ccccccc"
       id="path2423"
       d="M 432.73364,85.804757 C 422.81555,112.9018 390.26236,130.76518 362.76003,130.76518 L 362.76003,198.52243 L 381.59908,198.52243 L 382.70726,166.86016 C 400.76218,159.26122 433.73971,129.25748 440.01596,99.419533 L 432.73364,85.804757 z "
       style="color:#000000;fill:#b8a46f;fill-opacity:1;fill-rule:evenodd;stroke:#353734;stroke-width:1.5;stroke-linecap:round;stroke-linejoin:round;marker:none;marker-start:none;marker-mid:none;marker-end:none;stroke-miterlimit:4;stroke-dasharray:none;stroke-dashoffset:0;stroke-opacity:1;visibility:visible;display:inline;overflow:visible;enable-background:accumulate" />
    <path
       id="path6846"
       d="M 483.40631,126.34375 L 463.43756,128.875 L 463.43756,222.75 C 463.43756,227.17305 466.62507,229.87647 466.62506,232.71875 L 466.62506,313.78125 C 466.62506,321.37051 467.9918,328.92412 474.12506,334.28125 C 474.12506,334.28125 483.40631,342.28125 483.40631,342.28125 L 483.40631,126.34375 z M 457.75006,140.59375 L 437.81256,143.125 L 437.81256,228.125 C 437.81256,232.54805 440.9688,235.25148 440.96881,238.09375 L 440.96881,339.09375 C 440.96881,346.68301 442.36678,354.23663 448.50006,359.59375 C 448.50006,359.59375 457.75007,367.59375 457.75006,367.59375 L 457.75006,140.59375 z M 431.78131,155.46875 L 411.84381,158 L 411.84381,229.71875 C 411.84381,234.1418 415.00006,236.84523 415.00006,239.6875 L 415.00006,315.6875 C 415.00006,323.27676 416.39804,330.83038 422.53131,336.1875 C 422.53131,336.1875 431.78131,344.15626 431.78131,344.15625 L 431.78131,155.46875 z M 407.09381,164.3125 L 385.87506,166.875 L 385.87506,231.9375 C 385.87506,236.36055 389.0313,239.06399 389.03131,241.90625 L 389.03131,293.1875 C 389.03131,300.77676 391.67929,308.33037 397.81256,313.6875 C 397.81256,313.6875 407.0938,321.68749 407.09381,321.6875 L 407.09381,164.3125 z "
       style="color:#000000;fill:#b8a46f;fill-opacity:1;fill-rule:evenodd;stroke:#353734;stroke-width:1.5;stroke-linecap:round;stroke-linejoin:round;marker:none;marker-start:none;marker-mid:none;marker-end:none;stroke-miterlimit:4;stroke-dasharray:none;stroke-dashoffset:0;stroke-opacity:1;visibility:visible;display:inline;overflow:visible;enable-background:accumulate" />
    <path
       style="color:#000000;fill:#b8a46f;fill-opacity:1;fill-rule:evenodd;stroke:#353734;stroke-width:1.5;stroke-linecap:round;stroke-linejoin:round;marker:none;marker-start:none;marker-mid:none;marker-end:none;stroke-miterlimit:4;stroke-dasharray:none;stroke-dashoffset:0;stroke-opacity:1;visibility:visible;display:inline;overflow:visible;enable-background:accumulate"
       d="M 201.13752,85.804757 C 211.05561,112.9018 243.6088,130.76518 271.11113,130.76518 L 271.11113,198.52243 L 252.27208,198.52243 L 251.1639,166.86016 C 233.10898,159.26122 200.13145,129.25748 193.8552,99.419533 L 201.13752,85.804757 z "
       id="path5342"
       sodipodi:nodetypes="ccccccc" />
    <path
       style="color:#000000;fill:#b8a46f;fill-opacity:1;fill-rule:evenodd;stroke:#353734;stroke-width:1.5;stroke-linecap:round;stroke-linejoin:round;marker:none;marker-start:none;marker-mid:none;marker-end:none;stroke-miterlimit:4;stroke-dasharray:none;stroke-dashoffset:0;stroke-opacity:1;visibility:visible;display:inline;overflow:visible;enable-background:accumulate"
       d="M 150.46485,126.34375 L 170.4336,128.875 L 170.4336,222.75 C 170.4336,227.17305 167.24609,229.87647 167.2461,232.71875 L 167.2461,313.78125 C 167.2461,321.37051 165.87936,328.92412 159.7461,334.28125 C 159.7461,334.28125 150.46485,342.28125 150.46485,342.28125 L 150.46485,126.34375 z M 176.1211,140.59375 L 196.0586,143.125 L 196.0586,228.125 C 196.0586,232.54805 192.90236,235.25148 192.90235,238.09375 L 192.90235,339.09375 C 192.90235,346.68301 191.50438,354.23663 185.3711,359.59375 C 185.3711,359.59375 176.12109,367.59375 176.1211,367.59375 L 176.1211,140.59375 z M 202.08985,155.46875 L 222.02735,158 L 222.02735,229.71875 C 222.02735,234.1418 218.8711,236.84523 218.8711,239.6875 L 218.8711,315.6875 C 218.8711,323.27676 217.47312,330.83038 211.33985,336.1875 C 211.33985,336.1875 202.08985,344.15626 202.08985,344.15625 L 202.08985,155.46875 z M 226.77735,164.3125 L 247.9961,166.875 L 247.9961,231.9375 C 247.9961,236.36055 244.83986,239.06399 244.83985,241.90625 L 244.83985,293.1875 C 244.83985,300.77676 242.19187,308.33037 236.0586,313.6875 C 236.0586,313.6875 226.77736,321.68749 226.77735,321.6875 L 226.77735,164.3125 z "
       id="path5344" />
    <path
       d="M 398.5384,165.27704 L 398.5384,298.89182 M 423.23497,156.72823 L 423.23497,322.3219 M 449.19803,142.16359 L 449.19803,347.01847 M 474.84447,128.2322 L 474.84447,321.68866 M 235.33276,165.27704 L 235.33276,298.89182 M 210.63619,156.72823 L 210.63619,322.3219 M 184.67313,142.16359 L 184.67313,347.01847 M 159.02669,128.2322 L 159.02669,321.68866"
       style="color:#000000;fill:none;fill-opacity:1;fill-rule:evenodd;stroke:#353734;stroke-width:1.5;stroke-linecap:round;stroke-linejoin:round;marker:none;marker-start:none;marker-mid:none;marker-end:none;stroke-miterlimit:4;stroke-dasharray:none;stroke-dashoffset:0;stroke-opacity:1;visibility:visible;display:inline;overflow:visible;enable-background:accumulate"
       id="path6848" />
    <path
       sodipodi:nodetypes="ccccccccccccccccc"
       id="path2427"
       d="M 362.44341,198.52243 C 365.52743,195.23316 369.92458,189.2572 372.1004,185.38259 L 381.9157,198.0475 C 387.8234,190.09075 392.52072,181.88992 396.32203,174.77573 C 400.65455,178.60682 404.31145,181.51629 407.40382,186.17415 L 421.33523,164.64381 C 424.32495,168.7599 427.95724,172.876 433.05027,176.99209 C 438.93877,168.8698 443.83705,160.94555 447.61491,153.24539 C 449.99445,156.78004 452.65046,160.25939 457.11359,163.37732 C 464.1602,150.90731 468.10996,139.05667 473.26135,126.96571 L 473.26135,102.58576 L 445.71517,87.387871 L 415.3194,124.74935 L 376.69143,141.21373 L 359.27718,141.84697 L 359.27718,198.52243 L 362.44341,198.52243 z "
       style="color:#000000;fill:#b8a46f;fill-opacity:1;fill-rule:evenodd;stroke:#353734;stroke-width:1.5;stroke-linecap:round;stroke-linejoin:miter;marker:none;marker-start:none;marker-mid:none;marker-end:none;stroke-miterlimit:4;stroke-dasharray:none;stroke-dashoffset:0;stroke-opacity:1;visibility:visible;display:inline;overflow:visible;enable-background:accumulate" />
    <path
       style="color:#000000;fill:#b8a46f;fill-opacity:1;fill-rule:evenodd;stroke:#353734;stroke-width:1.5;stroke-linecap:round;stroke-linejoin:miter;marker:none;marker-start:none;marker-mid:none;marker-end:none;stroke-miterlimit:4;stroke-dasharray:none;stroke-dashoffset:0;stroke-opacity:1;visibility:visible;display:inline;overflow:visible;enable-background:accumulate"
       d="M 271.42775,198.52243 C 268.34373,195.23316 263.94658,189.2572 261.77076,185.38259 L 251.95546,198.0475 C 246.04776,190.09075 241.35044,181.88992 237.54913,174.77573 C 233.21661,178.60682 229.55971,181.51629 226.46734,186.17415 L 212.53593,164.64381 C 209.54621,168.7599 205.91392,172.876 200.82089,176.99209 C 194.93239,168.8698 190.03411,160.94555 186.25625,153.24539 C 183.87671,156.78004 181.2207,160.25939 176.75757,163.37732 C 169.71096,150.90731 165.7612,139.05667 160.60981,126.96571 L 160.60981,102.58576 L 188.15599,87.387871 L 218.55176,124.74935 L 257.17973,141.21373 L 274.59398,141.84697 L 274.59398,198.52243 L 271.42775,198.52243 z "
       id="path5354"
       sodipodi:nodetypes="ccccccccccccccccc" />
    <path
       style="color:#000000;fill:#b8a46f;fill-opacity:1;fill-rule:evenodd;stroke:#353734;stroke-width:1.5;stroke-linecap:round;stroke-linejoin:miter;marker:none;marker-start:none;marker-mid:none;marker-end:none;stroke-miterlimit:4;stroke-dasharray:none;stroke-dashoffset:0;stroke-opacity:1;visibility:visible;display:inline;overflow:visible;enable-background:accumulate"
       d="M 201.15235,85.8125 C 211.07044,112.90954 243.61877,130.75 271.1211,130.75 L 271.1211,150.03125 C 268.23068,154.30495 264.8839,159.04143 260.65235,164.65625 C 255.5711,158.64042 253.15873,152.60958 250.52735,146.59375 L 239.4336,158.9375 L 230.90235,137.71875 C 227.38115,142.46809 223.84234,147.21941 219.4961,151.96875 C 214.35051,143.52548 210.82706,135.09952 209.0586,126.65625 C 204.90935,132.07199 201.2709,136.95871 197.96485,141.53125 C 192.93076,133.07204 190.82242,123.15684 189.1211,113.03125 C 184.77892,117.97668 180.35646,122.85401 175.1836,126.96875 C 168.59889,121.37508 167.02583,115.78117 163.46485,110.1875 L 166.6211,96.375 L 201.15235,85.8125 z "
       id="path5356" />
    <path
       style="color:#000000;fill:#b8a46f;fill-opacity:1;fill-rule:evenodd;stroke:#353734;stroke-width:1.5;stroke-linecap:round;stroke-linejoin:round;marker:none;marker-start:none;marker-mid:none;marker-end:none;stroke-miterlimit:4;stroke-dasharray:none;stroke-dashoffset:0;stroke-opacity:1;visibility:visible;display:inline;overflow:visible;enable-background:accumulate"
       d="M 200.18765,64.90766 C 206.13095,72.246704 205.47049,80.906499 203.03725,89.920852 C 187.51891,92.34217 172.55416,104.70463 165.04253,112.40106 L 165.04253,164.32719 C 165.04253,191.6469 158.45,202.4504 148.57816,211.34566 C 147.23361,212.55719 145.14121,210.70986 146.67842,208.33774 C 148.41354,205.66022 150.47789,197.57308 150.47789,191.55673 L 150.47789,104.4855 C 159.55868,86.463021 178.37171,70.946604 200.18765,64.90766 z "
       id="path5358"
       sodipodi:nodetypes="ccccssccc" />
    <path
       style="opacity:1;color:#000000;fill:#b8a46f;fill-opacity:1;fill-rule:evenodd;stroke:#353734;stroke-width:1.49999988;stroke-linecap:butt;stroke-linejoin:miter;marker:none;marker-start:none;marker-mid:none;marker-end:none;stroke-miterlimit:4;stroke-dasharray:none;stroke-dashoffset:0;stroke-opacity:1;visibility:visible;display:inline;overflow:visible;enable-background:accumulate"
       d="M 364.83426,194.67962 C 365.44011,210.08298 366.10257,224.81468 369.08809,240.21803 C 355.07634,231.50274 344.24256,197.36793 344.01286,182.67932 L 356.91208,177.62906 L 364.83426,194.67962 z "
       id="path9206"
       sodipodi:nodetypes="ccccc" />
    <path
       id="path2425"
       d="M 432.71881,85.8125 C 422.80072,112.90954 390.25239,130.75 362.75006,130.75 L 362.75006,150.03125 C 365.64048,154.30495 368.98726,159.04143 373.21881,164.65625 C 378.30006,158.64042 380.71243,152.60958 383.34381,146.59375 L 394.43756,158.9375 L 402.96881,137.71875 C 406.49001,142.46809 410.02882,147.21941 414.37506,151.96875 C 419.52065,143.52548 423.0441,135.09952 424.81256,126.65625 C 428.96181,132.07199 432.60026,136.95871 435.90631,141.53125 C 440.9404,133.07204 443.04874,123.15684 444.75006,113.03125 C 449.09224,117.97668 453.5147,122.85401 458.68756,126.96875 C 465.27227,121.37508 466.84533,115.78117 470.40631,110.1875 L 467.25006,96.375 L 432.71881,85.8125 z "
       style="color:#000000;fill:#b8a46f;fill-opacity:1;fill-rule:evenodd;stroke:#353734;stroke-width:1.5;stroke-linecap:round;stroke-linejoin:miter;marker:none;marker-start:none;marker-mid:none;marker-end:none;stroke-miterlimit:4;stroke-dasharray:none;stroke-dashoffset:0;stroke-opacity:1;visibility:visible;display:inline;overflow:visible;enable-background:accumulate" />
    <path
       sodipodi:nodetypes="cccccc"
       id="path9204"
       d="M 365.24363,164.32068 C 365.24363,175.96305 365.07181,186.26151 365.6914,197.23193 C 356.25704,188.9606 347.2895,166.71117 347.10886,156.26078 L 345.8339,126.03343 L 359.75766,131.83199 L 365.24363,164.32068 z "
       style="opacity:1;color:#000000;fill:#b8a46f;fill-opacity:1;fill-rule:evenodd;stroke:#353734;stroke-width:1.5;stroke-linecap:butt;stroke-linejoin:miter;marker:none;marker-start:none;marker-mid:none;marker-end:none;stroke-miterlimit:4;stroke-dasharray:none;stroke-dashoffset:0;stroke-opacity:1;visibility:visible;display:inline;overflow:visible;enable-background:accumulate" />
    <path
       sodipodi:nodetypes="ccccssccc"
       id="path2421"
       d="M 433.68351,64.90766 C 427.74021,72.246704 428.40067,80.906499 430.83391,89.920852 C 446.35225,92.34217 461.317,104.70463 468.82863,112.40106 L 468.82863,164.32719 C 468.82863,191.6469 475.42116,202.4504 485.293,211.34566 C 486.63755,212.55719 488.72995,210.70986 487.19274,208.33774 C 485.45762,205.66022 483.39327,197.57308 483.39327,191.55673 L 483.39327,104.4855 C 474.31248,86.463021 455.49945,70.946604 433.68351,64.90766 z "
       style="color:#000000;fill:#b8a46f;fill-opacity:1;fill-rule:evenodd;stroke:#353734;stroke-width:1.5;stroke-linecap:round;stroke-linejoin:round;marker:none;marker-start:none;marker-mid:none;marker-end:none;stroke-miterlimit:4;stroke-dasharray:none;stroke-dashoffset:0;stroke-opacity:1;visibility:visible;display:inline;overflow:visible;enable-background:accumulate" />
    <path
       style="color:#000000;fill:#b8a46f;fill-opacity:1;fill-rule:evenodd;stroke:#353734;stroke-width:1.50000024;stroke-linecap:butt;stroke-linejoin:miter;marker:none;marker-start:none;marker-mid:none;marker-end:none;stroke-miterlimit:4;stroke-dasharray:none;stroke-dashoffset:0;stroke-opacity:1;visibility:visible;display:inline;overflow:visible;enable-background:accumulate"
       d="M 341.11892,270.59243 C 336.19717,263.52352 318.71859,230.79614 336.54037,207.96581 C 356.77233,228.97863 351.67922,254.68326 341.11892,270.59243 z "
       id="path5313"
       sodipodi:nodetypes="ccc" />
    <path
       style="color:#000000;fill:#b8a46f;fill-opacity:1;fill-rule:evenodd;stroke:#353734;stroke-width:1.50000024;stroke-linecap:butt;stroke-linejoin:miter;marker:none;marker-start:none;marker-mid:none;marker-end:none;stroke-miterlimit:4;stroke-dasharray:none;stroke-dashoffset:0;stroke-opacity:1;visibility:visible;display:inline;overflow:visible;enable-background:accumulate"
       d="M 303.03179,263.34892 C 298.60464,256.28001 283.52535,223.63179 300.8253,200.80146 C 319.23493,221.81428 313.34528,247.43975 303.03179,263.34892 z "
       id="path10187"
       sodipodi:nodetypes="ccc" />
    <path
       style="opacity:1;color:#000000;fill:#b8a46f;fill-opacity:1;fill-rule:evenodd;stroke:#353734;stroke-width:1.5;stroke-linecap:butt;stroke-linejoin:miter;marker:none;marker-start:none;marker-mid:none;marker-end:none;stroke-miterlimit:4;stroke-dasharray:none;stroke-dashoffset:0;stroke-opacity:1;visibility:visible;display:inline;overflow:visible;enable-background:accumulate"
       d="M 271.3499,228.90402 L 271.3499,284.09969 C 283.9638,267.21236 286.79803,235.16769 286.79803,219.39663 L 271.3499,228.90402 z "
       id="path5392"
       sodipodi:nodetypes="cccc" />
    <path
       style="color:#000000;fill:#b8a46f;fill-opacity:1;fill-rule:evenodd;stroke:#353734;stroke-width:1.50000012;stroke-linecap:butt;stroke-linejoin:miter;marker:none;marker-start:none;marker-mid:none;marker-end:none;stroke-miterlimit:4;stroke-dasharray:none;stroke-dashoffset:0;stroke-opacity:1;visibility:visible;display:inline;overflow:visible;enable-background:accumulate"
       d="M 289.18519,254.78231 C 282.98687,248.32182 260.51225,217.81305 276.71247,193.00044 C 301.15466,211.54892 298.47763,237.7094 289.18519,254.78231 z "
       id="path10205"
       sodipodi:nodetypes="ccc" />
    <path
       sodipodi:nodetypes="ccc"
       id="path10185"
       d="M 318.65413,244.54249 C 309.42085,237.47358 288.46218,207.28811 312.70604,181.99503 C 339.70691,203.00785 331.4791,228.18555 318.65413,244.54249 z "
       style="color:#000000;fill:#b8a46f;fill-opacity:1;fill-rule:evenodd;stroke:#353734;stroke-width:1.50000024;stroke-linecap:butt;stroke-linejoin:miter;marker:none;marker-start:none;marker-mid:none;marker-end:none;stroke-miterlimit:4;stroke-dasharray:none;stroke-dashoffset:0;stroke-opacity:1;visibility:visible;display:inline;overflow:visible;enable-background:accumulate" />
    <path
       style="opacity:1;color:#000000;fill:#b8a46f;fill-opacity:1;fill-rule:evenodd;stroke:#353734;stroke-width:1.50000024;stroke-linecap:butt;stroke-linejoin:miter;marker:none;marker-start:none;marker-mid:none;marker-end:none;stroke-miterlimit:4;stroke-dasharray:none;stroke-dashoffset:0;stroke-opacity:1;visibility:visible;display:inline;overflow:visible;enable-background:accumulate"
       d="M 349.0682,250.49283 C 343.28878,243.79596 328.6266,209.52371 342.23449,188.26333 C 365.70596,207.74786 360.36347,233.78963 349.0682,250.49283 z "
       id="path5325"
       sodipodi:nodetypes="ccc" />
    <path
       style="opacity:1;color:#000000;fill:#b8a46f;fill-opacity:1;fill-rule:evenodd;stroke:#353734;stroke-width:1.50000024;stroke-linecap:butt;stroke-linejoin:miter;marker:none;marker-start:none;marker-mid:none;marker-end:none;stroke-miterlimit:4;stroke-dasharray:none;stroke-dashoffset:0;stroke-opacity:1;visibility:visible;display:inline;overflow:visible;enable-background:accumulate"
       d="M 298.98369,236.16413 C 292.57182,229.46726 274.5732,196.53833 293.19325,173.48686 C 322.81542,201.70295 311.51502,219.46093 298.98369,236.16413 z "
       id="path5327"
       sodipodi:nodetypes="ccc" />
    <path
       style="opacity:1;color:#000000;fill:#b8a46f;fill-opacity:1;fill-rule:evenodd;stroke:#353734;stroke-width:1.50000024;stroke-linecap:butt;stroke-linejoin:miter;marker:none;marker-start:none;marker-mid:none;marker-end:none;stroke-miterlimit:4;stroke-dasharray:none;stroke-dashoffset:0;stroke-opacity:1;visibility:visible;display:inline;overflow:visible;enable-background:accumulate"
       d="M 332.05286,237.73133 C 326.27344,231.03446 306.01411,199.67273 325.21915,175.50183 C 348.69062,194.98636 343.34813,221.02813 332.05286,237.73133 z "
       id="path5321"
       sodipodi:nodetypes="ccc" />
    <path
       sodipodi:nodetypes="ccc"
       id="path5319"
       d="M 315.03752,217.3577 C 309.2581,210.66083 288.99877,179.2991 308.20381,155.1282 C 331.67528,174.61273 326.33279,200.6545 315.03752,217.3577 z "
       style="opacity:1;color:#000000;fill:#b8a46f;fill-opacity:1;fill-rule:evenodd;stroke:#353734;stroke-width:1.50000024;stroke-linecap:butt;stroke-linejoin:miter;marker:none;marker-start:none;marker-mid:none;marker-end:none;stroke-miterlimit:4;stroke-dasharray:none;stroke-dashoffset:0;stroke-opacity:1;visibility:visible;display:inline;overflow:visible;enable-background:accumulate" />
    <path
       sodipodi:nodetypes="cccc"
       id="path5390"
       d="M 269.78269,193.48525 L 269.78269,239.32248 C 281.11692,225.2984 283.66362,198.68691 283.66362,185.58983 L 269.78269,193.48525 z "
       style="opacity:1;color:#000000;fill:#b8a46f;fill-opacity:1;fill-rule:evenodd;stroke:#353734;stroke-width:1.5;stroke-linecap:butt;stroke-linejoin:miter;marker:none;marker-start:none;marker-mid:none;marker-end:none;stroke-miterlimit:4;stroke-dasharray:none;stroke-dashoffset:0;stroke-opacity:1;visibility:visible;display:inline;overflow:visible;enable-background:accumulate" />
    <path
       sodipodi:nodetypes="ccc"
       id="path5322"
       d="M 284.19502,219.69975 C 279.08594,212.84457 263.5695,178.49083 278.51896,156.07261 C 302.57508,182.38896 290.04242,209.64562 284.19502,219.69975 z "
       style="opacity:1;color:#000000;fill:#b8a46f;fill-opacity:1;fill-rule:evenodd;stroke:#353734;stroke-width:1.50000024;stroke-linecap:butt;stroke-linejoin:miter;marker:none;marker-start:none;marker-mid:none;marker-end:none;stroke-miterlimit:4;stroke-dasharray:none;stroke-dashoffset:0;stroke-opacity:1;visibility:visible;display:inline;overflow:visible;enable-background:accumulate" />
    <path
       style="opacity:1;color:#000000;fill:#b8a46f;fill-opacity:1;fill-rule:evenodd;stroke:#353734;stroke-width:1.50000024;stroke-linecap:butt;stroke-linejoin:miter;marker:none;marker-start:none;marker-mid:none;marker-end:none;stroke-miterlimit:4;stroke-dasharray:none;stroke-dashoffset:0;stroke-opacity:1;visibility:visible;display:inline;overflow:visible;enable-background:accumulate"
       d="M 297.80979,196.26967 C 292.22578,189.5728 276.55103,156.64387 292.76698,133.5924 C 318.56452,161.80849 308.72316,179.56647 297.80979,196.26967 z "
       id="path5320"
       sodipodi:nodetypes="ccc" />
    <path
       sodipodi:nodetypes="ccc"
       id="path5323"
       d="M 348.84431,219.37267 C 343.06489,212.6758 322.80556,181.31407 342.0106,157.14317 C 365.48207,176.6277 360.13958,202.66947 348.84431,219.37267 z "
       style="opacity:1;color:#000000;fill:#b8a46f;fill-opacity:1;fill-rule:evenodd;stroke:#353734;stroke-width:1.50000024;stroke-linecap:butt;stroke-linejoin:miter;marker:none;marker-start:none;marker-mid:none;marker-end:none;stroke-miterlimit:4;stroke-dasharray:none;stroke-dashoffset:0;stroke-opacity:1;visibility:visible;display:inline;overflow:visible;enable-background:accumulate" />
    <path
       sodipodi:nodetypes="ccc"
       id="path5315"
       d="M 329.79634,200.88471 C 319.84746,183.96481 309.63576,161.16758 327.51585,138.33725 C 346.54284,159.35007 340.45568,184.97554 329.79634,200.88471 z "
       style="opacity:1;color:#000000;fill:#b8a46f;fill-opacity:1;fill-rule:evenodd;stroke:#353734;stroke-width:1.50000024;stroke-linecap:butt;stroke-linejoin:miter;marker:none;marker-start:none;marker-mid:none;marker-end:none;stroke-miterlimit:4;stroke-dasharray:none;stroke-dashoffset:0;stroke-opacity:1;visibility:visible;display:inline;overflow:visible;enable-background:accumulate" />
    <path
       style="opacity:1;color:#000000;fill:#b8a46f;fill-opacity:1;fill-rule:evenodd;stroke:#353734;stroke-width:1.50000024;stroke-linecap:butt;stroke-linejoin:miter;marker:none;marker-start:none;marker-mid:none;marker-end:none;stroke-miterlimit:4;stroke-dasharray:none;stroke-dashoffset:0;stroke-opacity:1;visibility:visible;display:inline;overflow:visible;enable-background:accumulate"
       d="M 315.58762,184.67035 C 311.16725,177.8771 295.78279,146.06404 311.12431,121.5453 C 329.18485,141.31023 324.64557,167.72677 315.58762,184.67035 z "
       id="path10207"
       sodipodi:nodetypes="ccc" />
    <path
       style="opacity:1;color:#000000;fill:#b8a46f;fill-opacity:1;fill-rule:evenodd;stroke:#353734;stroke-width:1.5;stroke-linecap:butt;stroke-linejoin:miter;marker:none;marker-start:none;marker-mid:none;marker-end:none;stroke-miterlimit:4;stroke-dasharray:none;stroke-dashoffset:0;stroke-opacity:1;visibility:visible;display:inline;overflow:visible;enable-background:accumulate"
       d="M 268.43937,153.79803 L 268.43937,200.59021 C 283.247,186.27396 286.57414,159.10806 286.57414,145.73813 L 268.43937,153.79803 z "
       id="path5388"
       sodipodi:nodetypes="cccc" />
    <path
       sodipodi:nodetypes="ccsc"
       id="path5318"
       d="M 284.66995,182.97152 C 281.61892,178.01607 264.67768,139.70455 277.56909,119.661 C 277.56909,119.661 292.30429,134.6492 292.30429,134.6492 C 297.92295,151.1779 289.76039,170.79278 284.66995,182.97152 z "
       style="opacity:1;color:#000000;fill:#b8a46f;fill-opacity:1;fill-rule:evenodd;stroke:#353734;stroke-width:1.50000024;stroke-linecap:butt;stroke-linejoin:miter;marker:none;marker-start:none;marker-mid:none;marker-end:none;stroke-miterlimit:4;stroke-dasharray:none;stroke-dashoffset:0;stroke-opacity:1;visibility:visible;display:inline;overflow:visible;enable-background:accumulate" />
    <path
       style="opacity:1;color:#000000;fill:#b8a46f;fill-opacity:1;fill-rule:evenodd;stroke:#353734;stroke-width:1.5;stroke-linecap:round;stroke-linejoin:round;marker:none;marker-start:none;marker-mid:none;marker-end:none;stroke-miterlimit:4;stroke-dasharray:none;stroke-dashoffset:0;stroke-opacity:1;visibility:visible;display:inline;overflow:visible;enable-background:accumulate"
       d="M 298.20091,163.14558 C 294.59943,155.56372 283.41005,121.23633 303.82676,100.81082 C 317.88902,121.74273 306.43832,149.95851 298.20091,163.14558 z "
       id="path5309"
       sodipodi:nodetypes="ccc" />
    <path
       sodipodi:nodetypes="cccc"
       id="path5386"
       d="M 267.59815,131.8572 L 267.59815,164.09679 C 277.03251,155.82546 285.55228,134.24769 285.73292,123.7973 L 267.59815,131.8572 z "
       style="opacity:1;color:#000000;fill:#b8a46f;fill-opacity:1;fill-rule:evenodd;stroke:#353734;stroke-width:1.5;stroke-linecap:butt;stroke-linejoin:miter;marker:none;marker-start:none;marker-mid:none;marker-end:none;stroke-miterlimit:4;stroke-dasharray:none;stroke-dashoffset:0;stroke-opacity:1;visibility:visible;display:inline;overflow:visible;enable-background:accumulate" />
    <path
       sodipodi:nodetypes="cccccc"
       id="path5384"
       d="M 282.54419,109.46859 C 277.56468,118.03976 271.39941,125.82041 264.63331,133.20051 C 273.57131,131.41361 283.01722,127.43688 289.70855,124.02118 L 291.05186,109.46859 L 287.02191,104.99087 L 282.54419,109.46859 z "
       style="opacity:1;color:#000000;fill:#b8a46f;fill-opacity:1;fill-rule:evenodd;stroke:#353734;stroke-width:1.5;stroke-linecap:butt;stroke-linejoin:miter;marker:none;marker-start:none;marker-mid:none;marker-end:none;stroke-miterlimit:4;stroke-dasharray:none;stroke-dashoffset:0;stroke-opacity:1;visibility:visible;display:inline;overflow:visible;enable-background:accumulate" />
    <path
       style="opacity:1;color:#000000;fill:#b8a46f;fill-opacity:1;fill-rule:evenodd;stroke:#353734;stroke-width:1.50000024;stroke-linecap:butt;stroke-linejoin:miter;marker:none;marker-start:none;marker-mid:none;marker-end:none;stroke-miterlimit:4;stroke-dasharray:none;stroke-dashoffset:0;stroke-opacity:1;visibility:visible;display:inline;overflow:visible;enable-background:accumulate"
       d="M 287.35212,142.37476 C 284.11457,134.14262 280.30094,99.186819 300.60178,83.852891 C 306.45164,101.27549 294.58316,132.36569 287.35212,142.37476 z "
       id="path2408"
       sodipodi:nodetypes="ccc" />
    <path
       style="opacity:1;color:#000000;fill:#b8a46f;fill-opacity:1;fill-rule:evenodd;stroke:#353734;stroke-width:1.50000024;stroke-linecap:butt;stroke-linejoin:miter;marker:none;marker-start:none;marker-mid:none;marker-end:none;stroke-miterlimit:4;stroke-dasharray:none;stroke-dashoffset:0;stroke-opacity:1;visibility:visible;display:inline;overflow:visible;enable-background:accumulate"
       d="M 344.12505,183.64548 C 337.31057,169.18833 323.96447,146.16721 340.27736,125.12797 C 359.30435,146.14079 356.12771,166.84077 344.12505,183.64548 z "
       id="path5317"
       sodipodi:nodetypes="ccc" />
    <path
       style="opacity:1;color:#000000;fill:#b8a46f;fill-opacity:1;fill-rule:evenodd;stroke:#353734;stroke-width:1.5;stroke-linecap:butt;stroke-linejoin:miter;marker:none;marker-start:none;marker-mid:none;marker-end:none;stroke-miterlimit:4;stroke-dasharray:none;stroke-dashoffset:0;stroke-opacity:1;visibility:visible;display:inline;overflow:visible;enable-background:accumulate"
       d="M 365.62583,131.38227 L 365.62583,164.09679 C 355.65627,155.82546 345.44823,134.24769 345.92386,123.7973 C 345.92386,123.7973 351.05886,119.59302 351.05886,119.59302 C 351.05886,119.59302 365.62583,131.38227 365.62583,131.38227 z "
       id="path9202"
       sodipodi:nodetypes="cccsc" />
    <path
       sodipodi:nodetypes="ccccc"
       id="path5396"
       d="M 349.03835,104.99087 C 352.84822,113.49854 360.60848,124.91673 366.05369,130.96165 C 355.82956,133.48876 347.84429,124.47806 338.29182,107.22973 L 340.97845,95.811542 L 349.03835,104.99087 z "
       style="opacity:1;color:#000000;fill:#b8a46f;fill-opacity:1;fill-rule:evenodd;stroke:#353734;stroke-width:1.5;stroke-linecap:butt;stroke-linejoin:miter;marker:none;marker-start:none;marker-mid:none;marker-end:none;stroke-miterlimit:4;stroke-dasharray:none;stroke-dashoffset:0;stroke-opacity:1;visibility:visible;display:inline;overflow:visible;enable-background:accumulate" />
    <path
       sodipodi:nodetypes="ccccc"
       id="path5394"
       d="M 344.56063,85.065012 C 345.23376,93.7962 349.9765,105.42799 355.30716,111.93134 C 348.80751,111.0497 341.15853,101.94408 338.06793,96.930972 L 339.18736,84.61724 L 344.56063,85.065012 z "
       style="opacity:1;color:#000000;fill:#b8a46f;fill-opacity:1;fill-rule:evenodd;stroke:#353734;stroke-width:1.5;stroke-linecap:round;stroke-linejoin:round;marker:none;marker-start:none;marker-mid:none;marker-end:none;stroke-miterlimit:4;stroke-dasharray:none;stroke-dashoffset:0;stroke-opacity:1;visibility:visible;display:inline;overflow:visible;enable-background:accumulate" />
    <path
       sodipodi:nodetypes="ccc"
       id="path5311"
       d="M 328.11379,170.21233 C 323.58766,163.14342 308.17126,130.4952 325.85797,107.66487 C 344.67917,128.67769 338.65785,154.30316 328.11379,170.21233 z "
       style="opacity:1;color:#000000;fill:#b8a46f;fill-opacity:1;fill-rule:evenodd;stroke:#353734;stroke-width:1.50000012;stroke-linecap:butt;stroke-linejoin:miter;marker:none;marker-start:none;marker-mid:none;marker-end:none;stroke-miterlimit:4;stroke-dasharray:none;stroke-dashoffset:0;stroke-opacity:1;visibility:visible;display:inline;overflow:visible;enable-background:accumulate" />
    <path
       sodipodi:nodetypes="ccc"
       id="path3363"
       d="M 311.53684,146.99312 C 308.0137,139.37454 297.17875,104.93364 317.80491,84.719666 C 331.65067,105.7954 319.90974,133.89166 311.53684,146.99312 z "
       style="opacity:1;color:#000000;fill:#b8a46f;fill-opacity:1;fill-rule:evenodd;stroke:#353734;stroke-width:1.5;stroke-linecap:butt;stroke-linejoin:miter;marker:none;marker-start:none;marker-mid:none;marker-end:none;stroke-miterlimit:4;stroke-dasharray:none;stroke-dashoffset:0;stroke-opacity:1;visibility:visible;display:inline;overflow:visible;enable-background:accumulate" />
    <path
       sodipodi:nodetypes="ccccccc"
       id="path5382"
       d="M 293.73849,85.960556 C 290.00248,94.49005 286.86312,103.41731 280.7531,111.70745 C 286.55674,110.12518 293.62912,104.28835 297.99233,96.930973 C 297.54925,105.6905 297.71379,114.20698 300.23119,121.78232 C 309.27137,111.85855 314.25587,94.073727 315.23155,83.945582 L 305.60445,76.10957 L 293.73849,85.960556 z "
       style="opacity:1;color:#000000;fill:#b8a46f;fill-opacity:1;fill-rule:evenodd;stroke:#353734;stroke-width:1.5;stroke-linecap:butt;stroke-linejoin:miter;marker:none;marker-start:none;marker-mid:none;marker-end:none;stroke-miterlimit:4;stroke-dasharray:none;stroke-dashoffset:0;stroke-opacity:1;visibility:visible;display:inline;overflow:visible;enable-background:accumulate" />
    <path
       style="opacity:1;color:#000000;fill:#b8a46f;fill-opacity:1;fill-rule:evenodd;stroke:#353734;stroke-width:1.5;stroke-linecap:butt;stroke-linejoin:miter;marker:none;marker-start:none;marker-mid:none;marker-end:none;stroke-miterlimit:4;stroke-dasharray:none;stroke-dashoffset:0;stroke-opacity:1;visibility:visible;display:inline;overflow:visible;enable-background:accumulate"
       d="M 342.328,146.56485 C 338.31395,140.85466 324.00063,114.91364 338.09264,94.652929 C 357.76187,119.17745 348.29355,134.2731 342.328,146.56485 z "
       id="path3361"
       sodipodi:nodetypes="ccc" />
    <path
       sodipodi:nodetypes="csss"
       id="path5857"
       d="M 273.87863,294.30079 C 275.94612,290.70921 282.30028,295.67643 280.21108,298.89182 C 275.64673,305.91661 280.25779,315.36856 278.94459,316.93931 C 276.87568,319.41398 266.38727,307.31452 273.87863,294.30079 z "
       style="opacity:1;color:#000000;fill:#b8a46f;fill-opacity:1;fill-rule:evenodd;stroke:#353734;stroke-width:1.5;stroke-linecap:round;stroke-linejoin:round;marker:none;marker-start:none;marker-mid:none;marker-end:none;stroke-miterlimit:4;stroke-dasharray:none;stroke-dashoffset:0;stroke-opacity:1;visibility:visible;display:inline;overflow:visible;enable-background:accumulate" />
    <path
       sodipodi:nodetypes="ccccc"
       id="path3353"
       d="M 273.24537,71.715048 C 284.66395,69.652705 296.68607,69.340378 308.78627,69.340378 L 315.03957,60.258584 L 277.67809,60.258584 L 273.24537,71.715048 z "
       style="opacity:1;color:#000000;fill:#b8a46f;fill-opacity:1;fill-rule:evenodd;stroke:#353734;stroke-width:1.5;stroke-linecap:round;stroke-linejoin:round;marker:none;marker-start:none;marker-mid:none;marker-end:none;stroke-miterlimit:4;stroke-dasharray:none;stroke-dashoffset:0;stroke-opacity:1;visibility:visible;display:inline;overflow:visible;enable-background:accumulate" />
    <path
       sodipodi:nodetypes="ccc"
       id="path3355"
       d="M 327.70448,133.45647 C 324.16806,127.43876 310.77187,99.657114 327.70448,81.37204 C 340.86687,97.680526 332.9526,122.60918 327.70448,133.45647 z "
       style="opacity:1;color:#000000;fill:#b8a46f;fill-opacity:1;fill-rule:evenodd;stroke:#353734;stroke-width:1.5;stroke-linecap:butt;stroke-linejoin:miter;marker:none;marker-start:none;marker-mid:none;marker-end:none;stroke-miterlimit:4;stroke-dasharray:none;stroke-dashoffset:0;stroke-opacity:1;visibility:visible;display:inline;overflow:visible;enable-background:accumulate" />
    <path
       style="opacity:1;color:#000000;fill:#b8a46f;fill-opacity:1;fill-rule:evenodd;stroke:#353734;stroke-width:1.5;stroke-linecap:butt;stroke-linejoin:miter;marker:none;marker-start:none;marker-mid:none;marker-end:none;stroke-miterlimit:4;stroke-dasharray:none;stroke-dashoffset:0;stroke-opacity:1;visibility:visible;display:inline;overflow:visible;enable-background:accumulate"
       d="M 315.29104,109.94826 C 312.37222,103.60796 303.39577,74.945733 320.48396,58.123358 C 331.95478,75.6629 322.22775,99.04503 315.29104,109.94826 z "
       id="path3357"
       sodipodi:nodetypes="ccc" />
    <path
       sodipodi:nodetypes="ccc"
       id="path3359"
       d="M 339.95333,116.32738 C 335.93928,110.61719 321.94258,84.04292 335.71797,64.415463 C 350.16293,79.599612 344.8107,104.35225 339.95333,116.32738 z "
       style="opacity:1;color:#000000;fill:#b8a46f;fill-opacity:1;fill-rule:evenodd;stroke:#353734;stroke-width:1.5;stroke-linecap:butt;stroke-linejoin:miter;marker:none;marker-start:none;marker-mid:none;marker-end:none;stroke-miterlimit:4;stroke-dasharray:none;stroke-dashoffset:0;stroke-opacity:1;visibility:visible;display:inline;overflow:visible;enable-background:accumulate" />
    <path
       sodipodi:nodetypes="ccccccccssscccsc"
       id="path2366"
       d="M 310.76517,62.374679 C 306.71731,69.523514 294.75533,82.530078 287.01846,89.762541 C 292.58807,91.90246 298.78456,87.026204 304.11609,81.846974 C 304.28967,84.884978 305.37318,87.619675 306.80738,90.237475 C 311.55033,84.274414 316.1371,78.311354 319.6306,72.348293 C 319.9946,79.150416 322.11669,85.757198 326.27968,92.137211 C 330.95728,86.54488 333.68463,79.733642 334.9868,72.03167 C 338.12751,79.073118 343.13413,86.771829 348.44326,91.820589 C 347.01497,82.63504 346.14756,70.037352 345.91028,56.833782 C 345.79901,50.642348 341.2733,42.147932 333.562,40.844336 C 327.61482,39.838965 302.61066,39.692334 296.83377,41.160959 C 275.7545,46.519823 274.14068,63.383363 273.08707,72.189982 C 275.37764,68.618082 279.10537,64.556407 284.48548,62.216367 C 286.94157,63.986443 289.09886,65.457717 291.13456,66.807396 C 292.8223,64.552953 295.73073,62.859394 298.89181,62.691301 C 304.16244,62.411031 310.76517,62.374679 310.76517,62.374679 z "
       style="opacity:1;color:#000000;fill:#b8a46f;fill-opacity:1;fill-rule:evenodd;stroke:#353734;stroke-width:1.5;stroke-linecap:round;stroke-linejoin:miter;marker:none;marker-start:none;marker-mid:none;marker-end:none;stroke-miterlimit:4;stroke-dasharray:none;stroke-dashoffset:0;stroke-opacity:1;visibility:visible;display:inline;overflow:visible;enable-background:accumulate" />
    <path
       sodipodi:nodetypes="csssscc"
       id="path2368"
       d="M 293.25,42.15625 C 293.51749,47.54626 293.40955,56.004531 294.18965,57.164166 C 294.91109,58.236616 301.60677,57.892872 304.95201,57.825033 C 305.70245,57.810216 305.86749,57.381783 305.17188,57.296875 C 302.40397,56.959018 298.72977,57.200606 296.04791,55.35183 C 295.20611,54.771531 294.98921,47.512435 294.71875,42.0625 C 294.71875,42.0625 293.25,42.15625 293.25,42.15625 z "
       style="opacity:1;color:#000000;fill:#353734;fill-opacity:1;fill-rule:evenodd;stroke:none;stroke-width:1.5;stroke-linecap:round;stroke-linejoin:round;marker:none;stroke-miterlimit:4;stroke-dasharray:none;stroke-dashoffset:0;stroke-opacity:1;visibility:visible;display:inline;overflow:visible;enable-background:accumulate" />
    <path
       sodipodi:nodetypes="cccccccc"
       id="path2370"
       d="M 298.375,40.84375 C 298.34615,43.518845 298.68419,46.064666 299.53125,48.75 C 299.66835,49.166896 300.06122,49.445707 300.5,49.4375 L 328.44426,48.044855 C 328.44426,48.044855 328.44426,47.261873 328.44426,47.261873 L 301.25,47.40625 C 300.63375,45.206118 300.35085,43.083036 300.375,40.84375 C 300.375,40.84375 298.375,40.84375 298.375,40.84375 z "
       style="opacity:1;color:#000000;fill:#353734;fill-opacity:1;fill-rule:evenodd;stroke:none;stroke-width:2;stroke-linecap:round;stroke-linejoin:round;marker:none;stroke-miterlimit:4;stroke-dasharray:none;stroke-dashoffset:0;stroke-opacity:1;visibility:visible;display:inline;overflow:visible;enable-background:accumulate" />
    <path
       sodipodi:nodetypes="cc"
       id="path3345"
       d="M 308.94458,48.364125 C 309.50519,56.791242 319.15736,54.849619 320.81794,48.047502"
       style="opacity:1;color:#000000;fill:none;fill-opacity:1;fill-rule:evenodd;stroke:#353734;stroke-width:1.5;stroke-linecap:round;stroke-linejoin:round;marker:none;marker-start:none;marker-mid:none;marker-end:none;stroke-miterlimit:4;stroke-dasharray:none;stroke-dashoffset:0;stroke-opacity:1;visibility:visible;display:inline;overflow:visible;enable-background:accumulate" />
    <path
       sodipodi:nodetypes="ccc"
       id="path5303"
       d="M 313.77308,48.126658 C 312.04259,49.841697 312.06901,51.754626 313.77308,53.944599 C 315.2001,51.873359 315.38483,49.722964 313.77308,48.126658 z "
       style="opacity:1;color:#000000;fill:#353734;fill-opacity:1;fill-rule:evenodd;stroke:#353734;stroke-width:0.60000002;stroke-linecap:round;stroke-linejoin:round;marker:none;marker-start:none;marker-mid:none;marker-end:none;stroke-miterlimit:4;stroke-dasharray:none;stroke-dashoffset:0;stroke-opacity:1;visibility:visible;display:inline;overflow:visible;enable-background:accumulate" />
    <path
       style="opacity:1;color:#000000;fill:#b8a46f;fill-opacity:1;fill-rule:evenodd;stroke:#353734;stroke-width:1.5;stroke-linecap:round;stroke-linejoin:round;marker:none;marker-start:none;marker-mid:none;marker-end:none;stroke-miterlimit:4;stroke-dasharray:none;stroke-dashoffset:0;stroke-opacity:1;visibility:visible;display:inline;overflow:visible;enable-background:accumulate"
       d="M 259.10377,309.17512 C 259.80937,305.09148 268.75116,307.4784 268.00719,312.28496 C 266.47774,322.16623 269.74552,326.06312 268.83224,327.89552 C 267.3934,330.7824 256.84845,322.22771 259.10377,309.17512 z "
       id="path11178"
       sodipodi:nodetypes="csss" />
    <path
       sodipodi:nodetypes="cssss"
       id="path12149"
       d="M 305.78401,274.80861 C 306.02708,270.67159 314.80285,272.27637 314.57549,277.13485 C 314.16547,285.89669 312.41048,295.09621 310.3631,295.09621 C 308.82381,295.09621 307.51243,292.33198 307.21372,288.69499 C 306.87332,284.55037 305.4819,279.89174 305.78401,274.80861 z "
       style="opacity:1;color:#000000;fill:#b8a46f;fill-opacity:1;fill-rule:evenodd;stroke:#353734;stroke-width:1.5;stroke-linecap:round;stroke-linejoin:round;marker:none;marker-start:none;marker-mid:none;marker-end:none;stroke-miterlimit:4;stroke-dasharray:none;stroke-dashoffset:0;stroke-opacity:1;visibility:visible;display:inline;overflow:visible;enable-background:accumulate" />
    <path
       sodipodi:nodetypes="cccssccccccccccccccccssccsccccccscccccccscccccccscccccccccccccccccscccccccccccccccccccccccscscsssscccccccccccccccccccccccccccccccccccccccsscccccssccccccssccccccccscccccccccscscccccccccccssssssscccccccccccccccccc"
       id="path19157"
       d="M 315.125,40.0625 C 308.64108,40.080355 302.20856,40.33311 298.59375,40.84375 C 298.55113,40.84375 298.375,40.84375 298.375,40.84375 C 298.37489,40.854189 298.3751,40.864565 298.375,40.875 C 297.77664,40.964026 297.25826,41.050871 296.84375,41.15625 C 295.68669,41.450403 294.57414,41.764755 293.53125,42.125 C 293.4437,42.130588 293.25,42.15625 293.25,42.15625 C 293.25107,42.177788 293.24895,42.197228 293.25,42.21875 C 275.5538,48.484402 274.08441,63.907062 273.09375,72.1875 C 273.20093,72.020358 273.324,71.856561 273.4375,71.6875 C 283.8845,69.819094 294.82527,69.397992 305.875,69.34375 C 300.44913,76.231428 292.64978,84.497769 287.03125,89.75 C 288.66346,90.377117 290.32891,90.377801 292.03125,89.96875 C 288.95997,97.255406 285.91003,104.71756 280.75,111.71875 C 280.92517,111.67099 281.10388,111.61793 281.28125,111.5625 C 277.13613,118.33237 272.27508,124.59803 266.96875,130.59375 C 241.03223,128.54125 214.40246,114.03687 202.90625,89.9375 C 202.94884,89.930703 202.98865,89.912897 203.03125,89.90625 C 205.46449,80.891897 206.1308,72.245293 200.1875,64.90625 C 178.37156,70.945194 159.54954,86.477524 150.46875,104.5 L 150.46875,191.5625 C 150.46875,197.57885 148.42262,205.66623 146.6875,208.34375 C 145.15029,210.71587 147.2492,212.55528 148.59375,211.34375 C 149.24379,210.75801 149.84809,210.16896 150.46875,209.5625 L 150.46875,342.28125 C 150.46875,342.28125 159.75001,334.28125 159.75,334.28125 C 165.88326,328.92412 167.25001,321.37051 167.25,313.78125 L 167.25,232.71875 C 167.24999,229.87647 170.43751,227.17305 170.4375,222.75 L 170.4375,150.71875 C 172.13373,154.51514 173.98077,158.33276 176.125,162.21875 L 176.125,367.59375 C 176.12499,367.59375 185.37501,359.59375 185.375,359.59375 C 191.50828,354.23663 192.90626,346.68301 192.90625,339.09375 L 192.90625,238.09375 C 192.90626,235.25148 196.06251,232.54805 196.0625,228.125 L 196.0625,170.125 C 197.57125,172.39774 199.14124,174.69476 200.8125,177 C 201.25626,176.64136 201.67163,176.26489 202.09375,175.90625 L 202.09375,344.15625 C 202.09375,344.15626 211.34376,336.1875 211.34375,336.1875 C 217.47702,330.83038 218.87501,323.27676 218.875,315.6875 L 218.875,239.6875 C 218.875,236.84523 222.03126,234.1418 222.03125,229.71875 L 222.03125,179.34375 L 226.46875,186.1875 C 226.56946,186.0358 226.67933,185.89808 226.78125,185.75 L 226.78125,321.6875 C 226.78126,321.68749 236.06251,313.6875 236.0625,313.6875 C 242.19577,308.33037 244.84376,300.77676 244.84375,293.1875 L 244.84375,241.90625 C 244.84376,239.06399 248.00001,236.36055 248,231.9375 L 248,192.4375 C 249.25605,194.31265 250.58369,196.19704 251.96875,198.0625 L 252.25,197.6875 L 252.28125,198.53125 L 268.4375,198.53125 L 268.4375,200.59375 C 268.90024,200.14637 269.34069,199.69042 269.78125,199.21875 L 269.78125,239.3125 C 270.3241,238.64082 270.84053,237.94531 271.34375,237.21875 L 271.34375,284.09375 C 272.05328,283.14384 272.72612,282.13399 273.375,281.09375 L 273.375,291 C 266.6051,291.32615 259.20017,296.39029 258.6875,307.5 L 259.4375,308.3125 C 259.28424,308.55884 259.15033,308.86004 259.09375,309.1875 C 257.42065,318.87051 262.7778,326.07129 266.25,327.96875 L 262.75,331.46875 L 280.8125,349.5625 L 298.875,367.59375 L 280.8125,385.65625 L 244.6875,349.53125 L 226.625,367.59375 L 280.8125,421.8125 L 298.875,403.71875 L 316.9375,385.6875 L 335,403.75 L 298.875,439.875 L 316.9375,457.9375 L 353.0625,421.8125 L 371.125,403.71875 L 353.0625,385.6875 L 335,367.59375 L 353.0625,349.53125 L 389.1875,385.65625 L 407.25,367.59375 L 371.125,331.46875 L 360.15625,320.5 C 361.29733,320.23476 362.2528,319.70623 363.0625,319.03125 C 363.67497,321.28468 364.83692,324.29295 366.84375,325.34375 C 370.09395,327.04562 372.21875,319.8125 372.21875,319.8125 C 372.06045,324.87846 371.39819,329.89704 376.75,334.40625 C 381.2164,338.16945 385.3125,326.875 385.3125,326.875 C 388.41035,335.42068 381.03918,339.57569 382.4375,341.125 C 383.80237,342.63726 387.40684,343.68168 388.8125,342.75 C 392.0168,340.62618 393.375,335.01259 393.375,331.5625 C 393.37501,323.04958 389.20597,316.13539 384.1875,312.09375 C 377.34236,306.58098 369.54863,303.14563 368.40625,302.65625 L 368.40625,276.09375 C 369.003,276.56525 369.60937,276.99597 370.21875,277.375 C 367.63908,264.06555 366.82297,251.23563 366.25,238.0625 C 367.18289,238.88974 368.12825,239.61821 369.09375,240.21875 C 366.35903,226.10936 365.57832,212.54596 365,198.53125 L 381.59375,198.53125 L 381.625,197.6875 L 381.90625,198.0625 C 383.29176,196.19643 384.61858,194.31326 385.875,192.4375 L 385.875,231.9375 C 385.875,236.36055 389.03124,239.06399 389.03125,241.90625 L 389.03125,293.1875 C 389.03125,300.77676 391.67923,308.33037 397.8125,313.6875 C 397.8125,313.6875 407.09374,321.68749 407.09375,321.6875 L 407.09375,185.75 C 407.19567,185.89808 407.30554,186.0358 407.40625,186.1875 L 411.84375,179.34375 L 411.84375,229.71875 C 411.84375,234.1418 415,236.84523 415,239.6875 L 415,315.6875 C 415,323.27676 416.39798,330.83038 422.53125,336.1875 C 422.53125,336.1875 431.78125,344.15626 431.78125,344.15625 L 431.78125,175.90625 C 432.20337,176.26489 432.61874,176.64136 433.0625,177 C 434.73376,174.69476 436.30375,172.39774 437.8125,170.125 L 437.8125,228.125 C 437.8125,232.54805 440.96874,235.25148 440.96875,238.09375 L 440.96875,339.09375 C 440.96875,346.68301 442.36672,354.23663 448.5,359.59375 C 448.5,359.59375 457.75001,367.59375 457.75,367.59375 L 457.75,162.21875 C 459.89423,158.33276 461.74127,154.51514 463.4375,150.71875 L 463.4375,222.75 C 463.4375,227.17305 466.62501,229.87647 466.625,232.71875 L 466.625,313.78125 C 466.625,321.37051 467.99174,328.92412 474.125,334.28125 C 474.125,334.28125 483.40625,342.28125 483.40625,342.28125 L 483.40625,209.59375 C 484.01707,210.1897 484.64203,210.76776 485.28125,211.34375 C 486.6258,212.55528 488.72471,210.71587 487.1875,208.34375 C 485.45237,205.66623 483.40625,197.57885 483.40625,191.5625 L 483.40625,104.5 C 474.32545,86.477524 455.50344,70.945194 433.6875,64.90625 C 427.74421,72.245293 428.41051,80.891897 430.84375,89.90625 C 430.88635,89.912897 430.92616,89.930703 430.96875,89.9375 C 429.31521,93.479441 427.30181,96.867692 424.9375,100.03125 C 423.84794,101.48944 422.68783,102.8787 421.46875,104.25 C 407.5523,119.8995 385.64152,129.73608 365.78125,130.65625 C 361.55073,125.89164 356.04218,118.06845 352.03125,110.875 C 353.13478,111.40838 354.24566,111.79279 355.3125,111.9375 C 350.66648,106.26941 346.47896,96.70625 345.03125,88.5625 C 345.02574,88.427251 345.00657,88.291535 345,88.15625 C 346.11695,89.480941 347.27514,90.707143 348.4375,91.8125 C 347.0092,82.626953 346.14353,70.04732 345.90625,56.84375 C 345.79498,50.652316 341.2738,42.147346 333.5625,40.84375 C 330.5889,40.341064 322.84155,40.041251 315.125,40.0625 z M 325.8125,233.25 C 325.59037,246.19363 326.21632,257.8969 326.84375,262.0625 C 327.22788,261.47161 327.57634,260.85209 327.9375,260.25 C 328.84222,273.94019 331.27466,286.84832 332.53125,292.875 L 316.9375,277.28125 L 314.40625,279.8125 C 314.46015,279.11064 314.49383,278.39133 314.53125,277.6875 C 316.64963,275.67104 318.15626,273.18207 318.15625,270.4375 C 318.15625,267.1761 316.75608,264.78991 314.34375,263.4375 L 314.34375,240.40625 C 315.90234,242.17021 317.39139,243.56289 318.65625,244.53125 C 321.33733,241.1118 323.81309,237.32179 325.8125,233.25 z M 306.0625,280.75 C 306.35677,282.99869 306.76799,285.15709 307.03125,287.1875 L 279.125,315.09375 C 279.10579,314.91342 279.09063,314.73099 279.0625,314.53125 C 280.41407,312.61127 280.91618,309.99023 280.1875,306.875 C 282.73025,307.14992 286.09158,307.24473 288.375,305.375 C 293.59373,301.1017 295.30171,294.73564 295.3125,290.59375 C 295.3125,290.59375 299.58706,293.81189 302.03125,291.5 C 305.10901,288.58883 305.15625,280.96876 305.15625,280.96875 L 306.0625,280.75 z M 334.15625,293.84375 L 334.15625,294.5 L 333.90625,294.25 C 333.98927,294.11646 334.07421,293.97955 334.15625,293.84375 z M 334.15625,296.1875 L 334.15625,308.28125 L 334.25,308.40625 C 325.91493,312.38027 320.32202,319.87036 320.9375,328.65625 L 321.125,328.875 C 320.96547,329.0353 320.79186,329.21683 320.65625,329.4375 C 319.2288,331.76034 318.58309,333.95236 318.46557,335.9321 C 318.46505,335.941 318.46453,335.94991 318.46402,335.9588 C 318.46361,335.96597 318.46321,335.97314 318.46281,335.98031 C 318.46274,335.98165 318.46267,335.98299 318.46259,335.98433 C 318.46205,335.99433 318.46151,336.00433 318.46099,336.01432 C 318.37877,337.59115 318.6314,339.03179 319.08961,340.2947 C 319.74465,342.10012 320.81984,343.54233 321.9375,344.5 L 316.9375,349.53125 L 298.875,331.46875 L 334.15625,296.1875 z M 276.75,316.65625 C 276.91577,316.77032 277.09355,316.88793 277.25,316.96875 L 268.75,325.46875 C 268.35561,323.75285 267.6055,321.33861 267.59375,317.5 C 271.10417,318.54456 274.37367,318.12713 276.75,316.65625 z M 346.21875,317.28125 C 346.60303,317.89015 347.065,318.44081 347.5625,318.90625 L 338.40625,328.0625 C 340.92997,324.09784 342.40342,320.30152 346.21875,317.28125 z M 326.125,335.15625 L 326.1875,335.25 C 326.1875,335.25001 328.44958,336.25651 331.1875,335.25 L 325.75,340.6875 C 325.53774,339.0323 325.48114,337.12609 326.125,335.15625 z "
       style="opacity:1;color:#000000;fill:none;fill-opacity:1;fill-rule:evenodd;stroke:#353734;stroke-width:3;stroke-linecap:butt;stroke-linejoin:round;marker:none;marker-start:none;marker-mid:none;marker-end:none;stroke-miterlimit:4.0999999;stroke-dasharray:none;stroke-dashoffset:0;stroke-opacity:1;visibility:visible;display:inline;overflow:visible;enable-background:accumulate" />
  </g>
</svg>
